<?xml version="1.0" encoding="utf-8"?>
<!-- Generator: Adobe Illustrator 26.5.0, SVG Export Plug-In . SVG Version: 6.00 Build 0)  -->
<svg version="1.1" id="Layer_1" xmlns="http://www.w3.org/2000/svg" xmlns:xlink="http://www.w3.org/1999/xlink" x="0px" y="0px"
	 viewBox="0 0 947 274.1" style="enable-background:new 0 0 947 274.1;" xml:space="preserve">
<style type="text/css">
	.st0{fill:#D40E8C;}
</style>
<g>
	<g>
		<path class="st0" d="M309.7,102.1h28.2v13.7h-45.5V30.1h17.2L309.7,102.1L309.7,102.1z"/>
		<path class="st0" d="M366.1,43.9v21.6H395v13.7h-28.9V102h32.6v14h-49.8V29.8h49.8v14L366.1,43.9L366.1,43.9z"/>
		<path class="st0" d="M466.9,99.5h-34.2l-5.7,16.4h-18.1l30.9-86h20l30.9,86h-18.2L466.9,99.5z M462.3,85.7l-12.5-35.9l-12.5,35.9
			H462.3z"/>
		<path class="st0" d="M546.6,115.8l-18.9-33.4h-8.1v33.4h-17.2V30.1h32.2c6.7,0,12.3,1.2,17,3.5c4.7,2.3,8.2,5.5,10.5,9.5
			c2.3,3.9,3.5,8.4,3.5,13.4c0,5.7-1.6,10.7-5,15.3c-3.2,4.6-8.2,7.7-14.7,9.4l20.6,34.8h-19.9L546.6,115.8L546.6,115.8z
			 M519.6,69.4H534c4.7,0,8.2-1.1,10.4-3.3c2.3-2.2,3.4-5.4,3.4-9.4c0-3.9-1.1-7-3.4-9.1c-2.3-2.1-5.8-3.2-10.4-3.2h-14.4V69.4z"/>
		<path class="st0" d="M654.5,115.8h-17.2l-39-58.9v58.9h-17.2v-86h17.2l39,59v-59h17.2V115.8z"/>
	</g>
	<g>
		<path class="st0" d="M399.2,157.6v85.9H382v-55.8l-23,55.8h-13l-23.1-55.8v55.8h-17.2v-85.9h19.5l27.3,63.8l27.3-63.8
			C379.9,157.6,399.2,157.6,399.2,157.6z"/>
		<path class="st0" d="M433.9,238.6c-6.7-3.7-12-9-16-15.7c-3.9-6.7-5.9-14.3-5.9-22.7s1.9-15.9,5.9-22.6c3.9-6.7,9.2-11.9,16-15.7
			c6.7-3.7,14.1-5.7,22.2-5.7s15.5,1.9,22.2,5.7c6.7,3.7,11.9,9,15.9,15.7c3.8,6.7,5.9,14.2,5.9,22.6c0,8.4-1.9,16-5.9,22.7
			c-3.8,6.7-9.2,11.9-15.9,15.7c-6.7,3.7-14.1,5.7-22.2,5.7S440.6,242.3,433.9,238.6z M469.7,225.3c3.9-2.3,7-5.7,9.2-10
			c2.2-4.4,3.3-9.4,3.3-15.1c0-5.8-1.1-10.7-3.3-15.1s-5.3-7.6-9.2-9.9c-3.9-2.3-8.5-3.4-13.7-3.4s-9.7,1.1-13.7,3.4
			c-3.9,2.3-7.1,5.6-9.3,9.9c-2.2,4.4-3.3,9.3-3.3,15.1s1.1,10.7,3.3,15.1c2.2,4.4,5.3,7.7,9.3,10c3.9,2.3,8.5,3.5,13.7,3.5
			S465.8,227.6,469.7,225.3z"/>
		<path class="st0" d="M557,243.3l-19-33.4h-8.1v33.4h-17.2v-85.8h32.2c6.7,0,12.3,1.2,17,3.5s8.2,5.5,10.5,9.5
			c2.3,3.9,3.5,8.4,3.5,13.4c0,5.7-1.6,10.7-5,15.3c-3.2,4.6-8.2,7.7-14.7,9.4l20.6,34.8L557,243.3L557,243.3z M529.9,197h14.4
			c4.7,0,8.2-1.1,10.4-3.3c2.3-2.2,3.4-5.4,3.4-9.4c0-3.9-1.1-7-3.4-9.1c-2.3-2.1-5.8-3.2-10.4-3.2h-14.4V197z"/>
		<path class="st0" d="M608.7,171.5v21.6h28.9v13.7h-28.9v22.7h32.6v14h-49.8v-86.1h49.8v14h-32.6V171.5z"/>
	</g>
</g>
</svg>
